<svg width="32" height="32" viewBox="0 0 32 32" fill="none" xmlns="http://www.w3.org/2000/svg">
  <rect width="32" height="32" rx="8" fill="#0f172a"/>
  <path d="M16 8 L6 14 L7.5 16 L16 11 Z" fill="#f97316" fill-opacity="0.2"/>
  <path d="M16 8 L26 14 L24.5 16 L16 11 Z" fill="#f97316" fill-opacity="0.2"/>
  <polygon points="16,3 11,8 21,8" fill="#f97316"/>
  <rect x="11" y="8" width="10" height="6" rx="1" fill="#f97316"/>
  <rect x="10" y="14" width="12" height="2" rx="1" fill="#f97316"/>
  <path d="M13 16 L11.5 27 L20.5 27 L19 16 Z" fill="#f97316" fill-opacity="0.85"/>
  <path d="M12.8 20 L12.5 23 L19.5 23 L19.2 20 Z" fill="#f97316"/>
  <rect x="10" y="27" width="12" height="3" rx="1.5" fill="#f97316"/>
  <path d="M14.5 27 L14.5 23.5 Q16 22 17.5 23.5 L17.5 27 Z" fill="#0f172a" fill-opacity="0.5"/>
  <circle cx="16" cy="11" r="2" fill="#fef08a"/>
</svg>